<svg xmlns="http://www.w3.org/2000/svg" width="512" height="512" viewBox="0 0 512 512">
  <g fill="none" fill-rule="evenodd">
    <rect width="511" height="511" x=".5" y=".5" fill="#414141" stroke="#414141"/>
    <path fill="#FF5A52" d="M240 344L240 328 256 312 272 328 272 344 256 360 240 344zM240 184L240 168 256 152 272 168 272 184 256 200 240 184zM312 432L328 416 440 416 456 432 440 448 328 448 312 432zM448 408L448 280 464 264 480 280 480 408 464 424 448 408zM312 256L328 240 440 240 456 256 440 272 328 272 312 256zM288 232L288 104 304 88 320 104 320 232 304 248 288 232zM312 80L328 64 440 64 456 80 440 96 328 96 312 80zM56 432L72 416 184 416 200 432 184 448 72 448 56 432zM192 408L192 280 208 264 224 280 224 408 208 424 192 408zM32 408L32 280 48 264 64 280 64 408 48 424 32 408zM192 232L192 104 208 88 224 104 224 232 208 248 192 232zM32 232L32 104 48 88 64 104 64 232 48 248 32 232zM56 80L72 64 184 64 200 80 184 96 72 96 56 80z"/>
  </g>
</svg>
