<?xml version="1.0" standalone="no"?>
<!DOCTYPE svg PUBLIC "-//W3C//DTD SVG 20010904//EN"
 "http://www.w3.org/TR/2001/REC-SVG-20010904/DTD/svg10.dtd">
<svg version="1.0" xmlns="http://www.w3.org/2000/svg"
 width="512.000000pt" height="512.000000pt" viewBox="0 0 512.000000 512.000000"
 preserveAspectRatio="xMidYMid meet">
<metadata>
Created by potrace 1.11, written by Peter Selinger 2001-2013
</metadata>
<g transform="translate(0.000000,512.000000) scale(0.100000,-0.100000)"
fill="#000000" stroke="none">
<path d="M640 4400 l-81 -80 81 -80 81 -80 560 0 559 0 75 75 c41 41 75 79 75
85 0 6 -34 44 -75 85 l-75 75 -559 0 -560 0 -81 -80z"/>
<path d="M3198 4399 l-78 -79 80 -80 80 -80 560 0 559 0 81 80 81 80 -81 80
-81 80 -562 -1 -562 -1 -77 -79z"/>
<path d="M398 4159 l-78 -79 0 -640 0 -639 80 -81 79 -80 81 80 80 79 0 641 0
641 -80 79 c-45 44 -82 80 -83 79 -1 0 -37 -36 -79 -80z"/>
<path d="M1998 4159 l-78 -80 0 -639 0 -639 80 -81 79 -80 81 80 80 79 0 641
0 640 -80 80 c-44 44 -81 80 -82 79 -2 0 -38 -36 -80 -80z"/>
<path d="M2958 4159 l-78 -79 0 -640 0 -640 80 -80 80 -80 80 80 80 80 0 640
0 639 -80 81 c-43 44 -80 80 -82 79 -2 0 -38 -36 -80 -80z"/>
<path d="M2473 3514 l-73 -75 0 -79 0 -79 80 -81 80 -81 80 81 80 81 0 80 0
79 -75 75 c-41 41 -80 75 -87 74 -7 0 -46 -34 -85 -75z"/>
<path d="M3200 2640 l-80 -80 80 -80 80 -80 560 0 561 0 79 80 80 81 -80 79
-81 80 -559 0 -560 0 -80 -80z"/>
<path d="M400 2400 l-80 -79 0 -641 0 -640 80 -80 80 -80 80 80 80 81 0 639 0
639 -80 81 -79 80 -81 -80z"/>
<path d="M2000 2400 l-80 -79 0 -641 0 -641 80 -79 80 -80 80 80 80 80 0 640
0 639 -80 81 -79 80 -81 -80z"/>
<path d="M4558 2399 l-78 -80 0 -639 0 -640 80 -80 80 -80 80 80 80 80 0 640
0 641 -80 79 c-45 44 -82 80 -83 79 -1 0 -37 -36 -79 -80z"/>
<path d="M2473 1914 l-73 -74 0 -80 0 -80 80 -80 80 -80 80 80 80 81 0 80 0
79 -75 75 c-41 41 -80 75 -87 74 -7 0 -46 -34 -85 -75z"/>
<path d="M643 884 c-40 -40 -73 -78 -73 -84 0 -6 34 -44 75 -85 l75 -75 559 0
560 0 81 80 81 80 -81 80 -81 80 -562 -1 -562 -1 -72 -74z"/>
<path d="M3198 879 l-78 -79 80 -80 80 -80 560 0 560 0 75 75 c41 41 75 79 75
85 0 6 -34 44 -75 85 l-75 75 -562 -1 -563 -1 -77 -79z"/>
</g>
</svg>
